<mxfile host="app.diagrams.net" agent="Mozilla/5.0 (Windows NT 10.0; Win64; x64) AppleWebKit/537.36 (KHTML, like Gecko) Chrome/131.0.0.0 Safari/537.36" version="24.8.6">
  <diagram name="Page-1" id="V_NPA-IXTu4BaglWIxY3">
    <mxGraphModel grid="0" page="0" gridSize="10" guides="1" tooltips="1" connect="1" arrows="1" fold="1" pageScale="1" pageWidth="827" pageHeight="1169" math="0" shadow="0">
      <root>
        <mxCell id="0" />
        <mxCell id="1" parent="0" />
        <mxCell id="2bRweydqgxUMFiN8pvOt-4" style="edgeStyle=none;curved=0;rounded=0;orthogonalLoop=1;jettySize=auto;html=1;fontSize=12;startSize=8;endSize=8;" edge="1" parent="1">
          <mxGeometry relative="1" as="geometry">
            <mxPoint x="-23" y="95" as="sourcePoint" />
            <mxPoint x="269" y="95" as="targetPoint" />
          </mxGeometry>
        </mxCell>
        <mxCell id="2bRweydqgxUMFiN8pvOt-14" style="edgeStyle=none;curved=0;rounded=0;orthogonalLoop=1;jettySize=auto;html=1;fontSize=12;startSize=8;endSize=8;" edge="1" parent="1">
          <mxGeometry relative="1" as="geometry">
            <mxPoint x="-24" y="351" as="sourcePoint" />
            <mxPoint x="269" y="351" as="targetPoint" />
          </mxGeometry>
        </mxCell>
        <mxCell id="2bRweydqgxUMFiN8pvOt-1" value="Giáo viên" style="shape=umlLifeline;perimeter=lifelinePerimeter;whiteSpace=wrap;html=1;container=1;dropTarget=0;collapsible=0;recursiveResize=0;outlineConnect=0;portConstraint=eastwest;newEdgeStyle={&quot;curved&quot;:0,&quot;rounded&quot;:0};" vertex="1" parent="1">
          <mxGeometry x="-75" y="-5" width="98" height="1148" as="geometry" />
        </mxCell>
        <mxCell id="2bRweydqgxUMFiN8pvOt-6" style="edgeStyle=none;curved=0;rounded=0;orthogonalLoop=1;jettySize=auto;html=1;fontSize=12;startSize=8;endSize=8;" edge="1" parent="1" source="2bRweydqgxUMFiN8pvOt-2" target="2bRweydqgxUMFiN8pvOt-3">
          <mxGeometry relative="1" as="geometry">
            <Array as="points">
              <mxPoint x="459" y="147" />
            </Array>
          </mxGeometry>
        </mxCell>
        <mxCell id="2bRweydqgxUMFiN8pvOt-11" style="edgeStyle=none;curved=0;rounded=0;orthogonalLoop=1;jettySize=auto;html=1;fontSize=12;startSize=8;endSize=8;" edge="1" parent="1">
          <mxGeometry relative="1" as="geometry">
            <mxPoint x="265" y="266" as="sourcePoint" />
            <mxPoint x="-27" y="266" as="targetPoint" />
          </mxGeometry>
        </mxCell>
        <mxCell id="2bRweydqgxUMFiN8pvOt-16" style="edgeStyle=none;curved=0;rounded=0;orthogonalLoop=1;jettySize=auto;html=1;fontSize=12;startSize=8;endSize=8;" edge="1" parent="1">
          <mxGeometry relative="1" as="geometry">
            <mxPoint x="269" y="473" as="sourcePoint" />
            <mxPoint x="561" y="473" as="targetPoint" />
          </mxGeometry>
        </mxCell>
        <mxCell id="2bRweydqgxUMFiN8pvOt-18" style="edgeStyle=none;curved=0;rounded=0;orthogonalLoop=1;jettySize=auto;html=1;fontSize=12;startSize=8;endSize=8;" edge="1" parent="1">
          <mxGeometry relative="1" as="geometry">
            <mxPoint x="269" y="729" as="sourcePoint" />
            <mxPoint x="561" y="729" as="targetPoint" />
          </mxGeometry>
        </mxCell>
        <mxCell id="2bRweydqgxUMFiN8pvOt-21" style="edgeStyle=none;curved=0;rounded=0;orthogonalLoop=1;jettySize=auto;html=1;fontSize=12;startSize=8;endSize=8;" edge="1" parent="1">
          <mxGeometry relative="1" as="geometry">
            <mxPoint x="270" y="636" as="sourcePoint" />
            <mxPoint x="-23" y="636" as="targetPoint" />
          </mxGeometry>
        </mxCell>
        <mxCell id="2bRweydqgxUMFiN8pvOt-23" style="edgeStyle=none;curved=0;rounded=0;orthogonalLoop=1;jettySize=auto;html=1;fontSize=12;startSize=8;endSize=8;" edge="1" parent="1" source="2bRweydqgxUMFiN8pvOt-2" target="2bRweydqgxUMFiN8pvOt-3">
          <mxGeometry relative="1" as="geometry" />
        </mxCell>
        <mxCell id="2bRweydqgxUMFiN8pvOt-26" style="edgeStyle=none;curved=0;rounded=0;orthogonalLoop=1;jettySize=auto;html=1;fontSize=12;startSize=8;endSize=8;" edge="1" parent="1">
          <mxGeometry relative="1" as="geometry">
            <mxPoint x="271" y="844" as="sourcePoint" />
            <mxPoint x="562.5" y="844" as="targetPoint" />
          </mxGeometry>
        </mxCell>
        <mxCell id="2bRweydqgxUMFiN8pvOt-2" value="Hệ thống" style="shape=umlLifeline;perimeter=lifelinePerimeter;whiteSpace=wrap;html=1;container=1;dropTarget=0;collapsible=0;recursiveResize=0;outlineConnect=0;portConstraint=eastwest;newEdgeStyle={&quot;curved&quot;:0,&quot;rounded&quot;:0};" vertex="1" parent="1">
          <mxGeometry x="217" y="-5" width="101" height="1135" as="geometry" />
        </mxCell>
        <mxCell id="2bRweydqgxUMFiN8pvOt-20" value="" style="html=1;points=[[0,0,0,0,5],[0,1,0,0,-5],[1,0,0,0,5],[1,1,0,0,-5]];perimeter=orthogonalPerimeter;outlineConnect=0;targetShapes=umlLifeline;portConstraint=eastwest;newEdgeStyle={&quot;curved&quot;:0,&quot;rounded&quot;:0};" vertex="1" parent="2bRweydqgxUMFiN8pvOt-2">
          <mxGeometry x="45" y="572" width="10" height="62" as="geometry" />
        </mxCell>
        <mxCell id="2bRweydqgxUMFiN8pvOt-9" style="edgeStyle=none;curved=0;rounded=0;orthogonalLoop=1;jettySize=auto;html=1;fontSize=12;startSize=8;endSize=8;" edge="1" parent="1">
          <mxGeometry relative="1" as="geometry">
            <mxPoint x="558" y="222" as="sourcePoint" />
            <mxPoint x="266" y="222" as="targetPoint" />
          </mxGeometry>
        </mxCell>
        <mxCell id="2bRweydqgxUMFiN8pvOt-3" value="Cơ sơ dữ liệu" style="shape=umlLifeline;perimeter=lifelinePerimeter;whiteSpace=wrap;html=1;container=1;dropTarget=0;collapsible=0;recursiveResize=0;outlineConnect=0;portConstraint=eastwest;newEdgeStyle={&quot;curved&quot;:0,&quot;rounded&quot;:0};" vertex="1" parent="1">
          <mxGeometry x="509" y="-1" width="100" height="1131" as="geometry" />
        </mxCell>
        <mxCell id="2bRweydqgxUMFiN8pvOt-8" value="" style="html=1;points=[[0,0,0,0,5],[0,1,0,0,-5],[1,0,0,0,5],[1,1,0,0,-5]];perimeter=orthogonalPerimeter;outlineConnect=0;targetShapes=umlLifeline;portConstraint=eastwest;newEdgeStyle={&quot;curved&quot;:0,&quot;rounded&quot;:0};" vertex="1" parent="2bRweydqgxUMFiN8pvOt-3">
          <mxGeometry x="45" y="155" width="10" height="62" as="geometry" />
        </mxCell>
        <mxCell id="2bRweydqgxUMFiN8pvOt-5" value="Gửi yêu cầu quản lý sinh viên" style="text;strokeColor=none;fillColor=none;html=1;align=center;verticalAlign=middle;whiteSpace=wrap;rounded=0;fontSize=16;" vertex="1" parent="1">
          <mxGeometry x="15" y="67" width="226" height="30" as="geometry" />
        </mxCell>
        <mxCell id="2bRweydqgxUMFiN8pvOt-7" value="Gửi yêu cầu truy vấn&amp;nbsp;" style="text;strokeColor=none;fillColor=none;html=1;align=center;verticalAlign=middle;whiteSpace=wrap;rounded=0;fontSize=16;" vertex="1" parent="1">
          <mxGeometry x="307" y="114" width="226" height="30" as="geometry" />
        </mxCell>
        <mxCell id="2bRweydqgxUMFiN8pvOt-10" value="Trả về danh sách sinh viên" style="text;strokeColor=none;fillColor=none;html=1;align=center;verticalAlign=middle;whiteSpace=wrap;rounded=0;fontSize=16;" vertex="1" parent="1">
          <mxGeometry x="326" y="192" width="200" height="30" as="geometry" />
        </mxCell>
        <mxCell id="2bRweydqgxUMFiN8pvOt-12" value="Hiển thị danh sách sinh viên" style="text;strokeColor=none;fillColor=none;html=1;align=center;verticalAlign=middle;whiteSpace=wrap;rounded=0;fontSize=16;" vertex="1" parent="1">
          <mxGeometry x="23" y="237" width="212" height="30" as="geometry" />
        </mxCell>
        <mxCell id="2bRweydqgxUMFiN8pvOt-15" value="Giáo viên thực hiện các thao tác CRUD" style="text;strokeColor=none;fillColor=none;html=1;align=center;verticalAlign=middle;whiteSpace=wrap;rounded=0;fontSize=16;" vertex="1" parent="1">
          <mxGeometry x="-28" y="319" width="297" height="30" as="geometry" />
        </mxCell>
        <mxCell id="2bRweydqgxUMFiN8pvOt-17" value="C:Lưu dữ liệu&amp;nbsp;" style="text;strokeColor=none;fillColor=none;html=1;align=center;verticalAlign=middle;whiteSpace=wrap;rounded=0;fontSize=16;" vertex="1" parent="1">
          <mxGeometry x="352.5" y="441" width="147" height="30" as="geometry" />
        </mxCell>
        <mxCell id="2bRweydqgxUMFiN8pvOt-19" value="R: lấy dữ liệu " style="text;strokeColor=none;fillColor=none;html=1;align=center;verticalAlign=middle;whiteSpace=wrap;rounded=0;fontSize=16;" vertex="1" parent="1">
          <mxGeometry x="352.5" y="538" width="147" height="30" as="geometry" />
        </mxCell>
        <mxCell id="2bRweydqgxUMFiN8pvOt-22" value="Hiển thị thông tin." style="text;strokeColor=none;fillColor=none;html=1;align=center;verticalAlign=middle;whiteSpace=wrap;rounded=0;fontSize=16;" vertex="1" parent="1">
          <mxGeometry x="55" y="609" width="137" height="30" as="geometry" />
        </mxCell>
        <mxCell id="2bRweydqgxUMFiN8pvOt-25" value="U:&amp;nbsp;Cập nhật" style="text;strokeColor=none;fillColor=none;html=1;align=center;verticalAlign=middle;whiteSpace=wrap;rounded=0;fontSize=16;" vertex="1" parent="1">
          <mxGeometry x="390" y="698" width="95" height="30" as="geometry" />
        </mxCell>
        <mxCell id="2bRweydqgxUMFiN8pvOt-27" value="D: Xóa" style="text;strokeColor=none;fillColor=none;html=1;align=center;verticalAlign=middle;whiteSpace=wrap;rounded=0;fontSize=16;" vertex="1" parent="1">
          <mxGeometry x="382" y="821" width="95" height="30" as="geometry" />
        </mxCell>
      </root>
    </mxGraphModel>
  </diagram>
</mxfile>
